<?xml version="1.0" encoding="UTF-8" standalone="no"?>
<!DOCTYPE svg PUBLIC "-//W3C//DTD SVG 1.1//EN" "http://www.w3.org/Graphics/SVG/1.1/DTD/svg11.dtd">
<svg width="100%" height="100%" viewBox="0 0 140 100" version="1.1" xmlns="http://www.w3.org/2000/svg" xmlns:xlink="http://www.w3.org/1999/xlink" xml:space="preserve" xmlns:serif="http://www.serif.com/" style="fill-rule:evenodd;clip-rule:evenodd;stroke-linejoin:round;stroke-miterlimit:2;">
    <g transform="matrix(1.99334,0,0,1.99334,-29.9437,-48.4302)">
        <path d="M66.682,47.733L50.296,60.288L33.868,47.785L15.516,66.035L15.529,71.582C15.531,73.18 16.918,74.47 18.618,74.463L82.015,74.361C83.72,74.366 85.099,73.072 85.097,71.474L85.089,65.935L66.682,47.733Z" style="fill:white;fill-rule:nonzero;"/>
    </g>
    <g transform="matrix(1.99334,0,0,1.99334,-29.9437,-48.4302)">
        <path d="M29.972,44.821L15.469,33.781L15.506,59.205L29.972,44.821Z" style="fill:white;fill-rule:nonzero;"/>
    </g>
    <g transform="matrix(1.99334,0,0,1.99334,-29.9437,-48.4302)">
        <path d="M70.572,44.76L85.078,59.097L85.04,33.678L70.572,44.76Z" style="fill:white;fill-rule:nonzero;"/>
    </g>
    <g transform="matrix(1,0,0,1,20,0)">
        <g transform="matrix(1.99334,0,0,1.99334,-49.9437,-48.4302)">
            <path d="M81.941,24.296L18.542,24.389C16.838,24.393 15.457,25.684 15.46,27.282L15.46,28.521L50.288,55.029L85.031,28.417L85.031,27.178C85.027,25.579 83.643,24.291 81.941,24.296ZM60.73,37.464C60.407,38.36 59.954,39.167 59.365,39.886C58.771,40.601 58.066,41.18 57.23,41.629C56.396,42.079 55.466,42.309 54.451,42.327C53.293,42.325 52.409,42.048 51.807,41.484C51.329,41.71 50.828,41.904 50.306,42.079C49.783,42.248 49.121,42.333 48.327,42.338C47.817,42.336 47.339,42.265 46.898,42.121C46.455,41.982 46.06,41.764 45.727,41.456C45.393,41.155 45.126,40.768 44.93,40.31C44.729,39.85 44.627,39.298 44.624,38.659C44.624,37.647 44.805,36.722 45.161,35.883C45.512,35.039 46.004,34.313 46.625,33.698C47.239,33.087 47.957,32.613 48.776,32.271C49.596,31.923 50.47,31.751 51.413,31.751C52.127,31.746 52.827,31.797 53.521,31.895C54.21,31.989 54.859,32.143 55.464,32.349L53.946,39.917C54.108,40.035 54.372,40.091 54.74,40.088C55.324,40.091 55.846,39.926 56.309,39.601C56.772,39.272 57.153,38.844 57.464,38.324C57.768,37.804 58.006,37.227 58.165,36.591C58.318,35.966 58.398,35.34 58.398,34.728C58.396,33.023 57.836,31.716 56.724,30.809C55.611,29.901 54.044,29.454 52.029,29.455C50.465,29.457 49.082,29.708 47.87,30.206C46.653,30.706 45.626,31.376 44.795,32.219C43.962,33.058 43.325,34.032 42.892,35.124C42.458,36.218 42.239,37.351 42.239,38.526C42.241,39.599 42.413,40.514 42.76,41.272C43.101,42.025 43.566,42.649 44.155,43.132C44.743,43.611 45.431,43.965 46.218,44.183C47.005,44.41 47.845,44.518 48.733,44.518C49.562,44.513 50.327,44.467 51.025,44.37C51.725,44.273 52.358,44.121 52.934,43.91C53.075,44.238 53.212,44.577 53.34,44.922C53.464,45.271 53.582,45.616 53.674,45.96C53.393,46.093 53.042,46.219 52.65,46.33C52.25,46.44 51.819,46.532 51.361,46.599C50.9,46.666 50.412,46.72 49.894,46.759C49.375,46.799 48.867,46.82 48.356,46.82C47.133,46.82 45.973,46.659 44.878,46.335C43.776,46.007 42.818,45.508 41.989,44.825C41.162,44.151 40.51,43.307 40.028,42.283C39.551,41.258 39.309,40.034 39.308,38.621C39.308,37.296 39.561,35.964 40.082,34.604C40.59,33.248 41.383,32.031 42.444,30.929C43.501,29.832 44.863,28.943 46.506,28.247C48.148,27.552 50.102,27.199 52.357,27.195C53.566,27.196 54.71,27.348 55.781,27.647C56.848,27.957 57.793,28.418 58.596,29.044C59.397,29.667 60.035,30.445 60.505,31.392C60.971,32.34 61.208,33.448 61.213,34.722C61.219,35.652 61.055,36.56 60.73,37.464Z" style="fill:white;fill-rule:nonzero;"/>
        </g>
        <g transform="matrix(1.99334,0,0,1.99334,-49.9437,-48.4302)">
            <path d="M51.15,34.096C50.615,34.096 50.144,34.208 49.736,34.434C49.319,34.661 48.971,34.961 48.681,35.331C48.389,35.703 48.169,36.123 48.02,36.621C47.865,37.111 47.79,37.621 47.786,38.149C47.788,38.826 47.946,39.316 48.265,39.621C48.579,39.923 48.991,40.07 49.508,40.067C49.831,40.07 50.11,40.046 50.346,40.003C50.575,39.959 50.831,39.894 51.108,39.816L52.142,34.204C51.965,34.16 51.799,34.132 51.644,34.117C51.491,34.1 51.324,34.095 51.15,34.096Z" style="fill:white;fill-rule:nonzero;"/>
        </g>
    </g>
</svg>
