<?xml version="1.0" encoding="UTF-8" standalone="no"?>
<!DOCTYPE svg PUBLIC "-//W3C//DTD SVG 1.1//EN" "http://www.w3.org/Graphics/SVG/1.1/DTD/svg11.dtd">
<svg
  width="100%"
  height="100%"
  viewBox="0 0 100 100"
  version="1.1"
  xmlns="http://www.w3.org/2000/svg"
  xmlns:xlink="http://www.w3.org/1999/xlink"
  xml:space="preserve"
  xmlns:serif="http://www.serif.com/"
  style="fill-rule: evenodd; clip-rule: evenodd; stroke-linejoin: round; stroke-miterlimit: 2"
>
  <g transform="matrix(1.08808,0,0,1.08808,-4.404,-4.40397)">
    <path
      d="M28.771,17.173C33.791,18.825 38.779,20.579 43.838,22.098C48.895,23.614 53.953,25.574 59.137,26.107C65.594,26.772 71.695,22.061 73.747,15.845C74.809,12.623 76.443,13.615 78.277,14.781C85.617,19.45 90.242,26.343 92.704,34.396C94.267,39.513 94.486,45.077 94.976,50.471C95.247,53.445 93.266,55.315 90.698,56.651C76.11,64.244 62.758,61.385 49.63,52.602C42.477,47.817 34.843,43.535 26.934,40.184C22.903,38.476 17.789,39.111 13.163,39.082C8.035,39.052 6.236,37.184 8.255,32.619C12.407,23.226 16.86,18.049 28.771,17.173Z"
      style="fill: rgb(0, 191, 255)"
    />
  </g>
  <g transform="matrix(1.08808,0,0,1.08808,-4.404,-4.40397)">
    <path
      d="M5.006,54.279C4.949,46.369 5.205,46.609 10.827,45.287C22.368,42.572 31.741,47.044 40.783,53.286C47.48,57.907 53.949,62.869 62.041,65.105C70.993,67.581 79.695,67.358 88.382,64.079C89.611,63.616 91.094,63.826 92.459,63.725C92.252,65.088 92.289,66.549 91.799,67.8C86.431,81.511 70.553,84.226 57.398,78.459C53.502,76.751 49.579,74.971 45.497,73.843C37.436,71.615 29.578,75.232 26.245,82.799C24.755,86.179 23.421,85.846 20.979,84.045C10.23,76.111 6.221,64.851 5.006,54.279Z"
      style="fill: rgb(0, 191, 255)"
    />
  </g>
  <g transform="matrix(1.08808,0,0,1.08808,-4.404,-4.40397)">
    <path
      d="M72.867,89.96C67.337,91.682 62.815,93.388 58.148,94.474C50.239,96.314 42.471,95.434 35.092,91.992C30.46,89.83 29.934,84.951 33.788,81.65C37.567,78.412 42.021,78.171 46.252,79.75C54.087,82.676 61.425,87.01 70.049,87.583C70.636,87.621 71.17,88.493 72.867,89.96Z"
      style="fill: rgb(0, 191, 255)"
    />
  </g>
  <g transform="matrix(1.08808,0,0,1.08808,-4.404,-4.40397)">
    <path
      d="M28.966,9.381C33.16,8.024 37.268,6.18 41.567,5.417C48.72,4.147 55.928,4.114 62.916,6.879C66.08,8.13 68.446,10.071 68.276,13.552C68.103,17.051 65.38,19.257 62.26,19.661C58.791,20.11 54.987,20.037 51.658,19.068C44.646,17.026 37.849,14.253 30.968,11.768C30.382,11.555 29.828,11.251 29.258,10.99C29.162,10.453 29.063,9.917 28.966,9.381Z"
      style="fill: rgb(0, 191, 255)"
    />
  </g>
</svg>
